<svg xmlns="http://www.w3.org/2000/svg" viewBox="0 0 303.39 405.23"><path d="M191.12 405.23h-78.91c-.36-.22-.7-.54-1.09-.65-8.89-2.36-12.42-11.22-7.57-18.95 6.39-10.17 12.54-20.49 19.21-30.47 3.03-4.54 4.55-9.06 4.09-14.48-.33-3.82-.06-7.69-.06-11.76h-4.02c-34.73 0-69.46.04-104.19-.03-7.94-.02-13.88-3.69-17.08-11.04-3.17-7.3-1.06-13.67 4.06-19.38 7.71-8.61 15.36-17.28 23.02-25.94 10.84-12.26 21.67-24.54 32.49-36.82 2.15-2.44 4.24-4.95 6.88-8.04-2.1 0-3.28.02-4.46 0-7.67-.13-15.37.08-23-.53-6.87-.55-11.59-4.8-13.94-11.16-2.31-6.26-1.2-12.19 3.23-17.34 5.84-6.81 11.7-13.6 17.55-20.4 12.35-14.38 24.71-28.75 37.05-43.14 2.35-2.74 4.63-5.55 6.94-8.32-.13-.23-.26-.46-.4-.69H68.24c-7.06-.01-12.28-3.31-15.52-9.4-3.35-6.29-2.75-12.57 1.58-18.23 2.35-3.07 5.14-5.82 7.8-8.64 10.7-11.4 21.47-22.74 32.17-34.15 15.95-17 31.83-34.08 47.82-51.04 5.85-6.2 13.39-6.16 19.19-.01 13.71 14.54 27.33 29.16 41.01 43.73 15.2 16.19 30.48 32.3 45.62 48.54 4.99 5.35 6.34 11.75 3.38 18.49-2.95 6.72-8.25 10.58-15.81 10.68-6.76.09-13.52.01-20.28.03-.95 0-1.91.11-3.34.19.73 1.04 1.1 1.65 1.55 2.18 5 5.82 10.03 11.62 15.03 17.44 14.6 16.96 29.17 33.94 43.79 50.88 3.74 4.33 6.69 9.01 5.67 14.99-1.75 10.23-8.74 15.89-19.18 15.9-6.58.01-13.15-.01-19.73.01-.93 0-1.86.1-3.2.18.81 1.05 1.23 1.65 1.71 2.2 10.26 11.67 20.5 23.35 30.78 34.99 10.22 11.58 20.52 23.09 30.7 34.7 3.82 4.36 5.3 9.54 3.87 15.23-2.17 8.64-9.1 13.92-18.02 13.93-34.82.02-69.64.01-104.47.01h-3.78c0 5.61.1 10.78-.04 15.94-.07 2.53.64 4.62 1.98 6.74 7.32 11.56 14.52 23.19 21.76 34.8 2.55 4.1 2.28 8.19.04 12.35-2.01 3.73-5.62 5.06-9.2 6.48z" fill="#565656"/></svg>