<?xml version="1.0" encoding="utf-8"?>
<!-- Generator: Adobe Illustrator 28.2.0, SVG Export Plug-In . SVG Version: 6.00 Build 0)  -->
<svg version="1.1" id="Warstwa_1" xmlns="http://www.w3.org/2000/svg" xmlns:xlink="http://www.w3.org/1999/xlink" x="0px" y="0px"
	 viewBox="0 0 303.39 405.23" style="enable-background:new 0 0 303.39 405.23;" xml:space="preserve">
<style type="text/css">
	.st0{fill:#565656;}
</style>
<g>
	<g>
		<path class="st0" d="M191.12,405.23c-26.3,0-52.61,0-78.91,0c-0.36-0.22-0.7-0.54-1.09-0.65c-8.89-2.36-12.42-11.22-7.57-18.95
			c6.39-10.17,12.54-20.49,19.21-30.47c3.03-4.54,4.55-9.06,4.09-14.48c-0.33-3.82-0.06-7.69-0.06-11.76c-1.64,0-2.83,0-4.02,0
			c-34.73,0-69.46,0.04-104.19-0.03c-7.94-0.02-13.88-3.69-17.08-11.04c-3.17-7.3-1.06-13.67,4.06-19.38
			c7.71-8.61,15.36-17.28,23.02-25.94c10.84-12.26,21.67-24.54,32.49-36.82c2.15-2.44,4.24-4.95,6.88-8.04c-2.1,0-3.28,0.02-4.46,0
			c-7.67-0.13-15.37,0.08-23-0.53c-6.87-0.55-11.59-4.8-13.94-11.16c-2.31-6.26-1.2-12.19,3.23-17.34
			c5.84-6.81,11.7-13.6,17.55-20.4c12.35-14.38,24.71-28.75,37.05-43.14c2.35-2.74,4.63-5.55,6.94-8.32
			c-0.13-0.23-0.26-0.46-0.4-0.69c-0.98,0-1.97,0-2.95,0c-6.58,0-13.15,0-19.73,0c-7.06-0.01-12.28-3.31-15.52-9.4
			c-3.35-6.29-2.75-12.57,1.58-18.23c2.35-3.07,5.14-5.82,7.8-8.64C72.8,78.42,83.57,67.08,94.27,55.67
			c15.95-17,31.83-34.08,47.82-51.04c5.85-6.2,13.39-6.16,19.19-0.01c13.71,14.54,27.33,29.16,41.01,43.73
			c15.2,16.19,30.48,32.3,45.62,48.54c4.99,5.35,6.34,11.75,3.38,18.49c-2.95,6.72-8.25,10.58-15.81,10.68
			c-6.76,0.09-13.52,0.01-20.28,0.03c-0.95,0-1.91,0.11-3.34,0.19c0.73,1.04,1.1,1.65,1.55,2.18c5,5.82,10.03,11.62,15.03,17.44
			c14.6,16.96,29.17,33.94,43.79,50.88c3.74,4.33,6.69,9.01,5.67,14.99c-1.75,10.23-8.74,15.89-19.18,15.9
			c-6.58,0.01-13.15-0.01-19.73,0.01c-0.93,0-1.86,0.1-3.2,0.18c0.81,1.05,1.23,1.65,1.71,2.2c10.26,11.67,20.5,23.35,30.78,34.99
			c10.22,11.58,20.52,23.09,30.7,34.7c3.82,4.36,5.3,9.54,3.87,15.23c-2.17,8.64-9.1,13.92-18.02,13.93
			c-34.82,0.02-69.64,0.01-104.47,0.01c-1.16,0-2.32,0-3.78,0c0,5.61,0.1,10.78-0.04,15.94c-0.07,2.53,0.64,4.62,1.98,6.74
			c7.32,11.56,14.52,23.19,21.76,34.8c2.55,4.1,2.28,8.19,0.04,12.35C198.31,402.48,194.7,403.81,191.12,405.23z"/>
	</g>
</g>
</svg>
